<?xml version="1.0" standalone="no"?>
<!DOCTYPE svg PUBLIC "-//W3C//DTD SVG 20010904//EN"
 "http://www.w3.org/TR/2001/REC-SVG-20010904/DTD/svg10.dtd">
<svg version="1.0" xmlns="http://www.w3.org/2000/svg"
 width="59.000000pt" height="59.000000pt" viewBox="0 0 59.000000 59.000000"
 preserveAspectRatio="xMidYMid meet">
<metadata>
Created by potrace 1.15, written by Peter Selinger 2001-2017
</metadata>
<g transform="translate(0.000000,59.000000) scale(0.100000,-0.100000)"
fill="#000000" stroke="none">
<path d="M184 574 c-54 -19 -118 -75 -152 -132 -25 -43 -27 -56 -27 -147 0
-91 2 -104 27 -147 57 -97 148 -148 263 -148 115 0 206 51 263 148 25 43 27
56 27 147 0 91 -2 104 -27 147 -36 59 -98 113 -156 132 -56 20 -163 19 -218 0z
m233 -37 c44 -23 104 -88 125 -135 26 -57 26 -157 0 -214 -44 -98 -139 -159
-247 -159 -240 0 -359 286 -189 454 22 22 52 46 68 54 63 33 180 32 243 0z"/>
<path d="M249 361 c-66 -68 -89 -99 -98 -133 -26 -93 1 -116 98 -83 37 12 67
35 130 99 72 74 81 88 81 120 0 51 -36 86 -87 86 -35 0 -45 -8 -124 -89z"/>
</g>
</svg>
